<svg xmlns="http://www.w3.org/2000/svg" xmlns:xlink="http://www.w3.org/1999/xlink" viewBox="0 0 180.012 207.687"><defs><style>.cls-1{fill:url(#linear-gradient);}.cls-2{fill:#b3b3b3;}.cls-3{fill:#9490e8;}</style><linearGradient id="linear-gradient" y1="103.844" x2="180.012" y2="103.844" gradientUnits="userSpaceOnUse"><stop offset="0" stop-color="#fff"/><stop offset="1" stop-color="#fff"/></linearGradient></defs><g id="Layer_2" data-name="Layer 2"><g id="Layer_1-2" data-name="Layer 1"><polygon class="cls-1" points="140.403 133.068 140.403 132.983 89.932 162.122 39.461 132.983 39.461 74.704 89.932 45.565 140.521 74.772 180.012 52.008 89.932 0 0 51.922 0 155.765 89.932 207.687 179.863 155.765 179.863 110.703 160.133 121.885 140.403 133.068"/><polygon class="cls-2" points="140.403 88.339 140.403 88.339 140.403 88.339 140.403 88.339"/><polygon class="cls-3" points="140.403 88.339 140.403 88.339 140.403 110.703 140.403 132.983 140.403 133.068 160.133 121.885 179.863 110.703 160.133 99.521 140.403 88.339"/></g></g></svg>